<?xml version="1.0" encoding="utf-8"?>
<!-- Generator: Adobe Illustrator 22.1.0, SVG Export Plug-In . SVG Version: 6.00 Build 0)  -->
<svg version="1.1" id="Layer_1" xmlns="http://www.w3.org/2000/svg" xmlns:xlink="http://www.w3.org/1999/xlink" x="0px" y="0px"
	 viewBox="0 0 500 500" style="enable-background:new 0 0 500 500;" xml:space="preserve">
<style type="text/css">
	.st0{fill:#222338;}
	.st1{opacity:0.3;fill:#1D0E35;}
	.st2{enable-background:new    ;}
	.st3{fill:#E5E3E8;}
	.st4{fill:#D4CED8;}
	.st5{fill:#E0DDE1;}
	.st6{fill:#F1F1F1;}
	.st7{fill:url(#SVGID_1_);}
	.st8{fill:#1F0159;}
	.st9{fill:#3D2F43;}
	.st10{fill:#10191B;}
	.st11{fill:#242A31;}
	.st12{opacity:0.3;}
	.st13{fill:#50298A;}
	.st14{fill:#693AB0;}
	.st15{fill:#7350BA;}
	.st16{fill:#8125BB;}
	.st17{fill:#AC44EE;}
	.st18{fill:#C574F7;}
	.st19{fill:#FFB700;}
	.st20{fill:#FFC400;}
	.st21{fill:#FFDE38;}
	.st22{fill:#F9F7FC;}
	.st23{fill:#F5F3FB;}
	.st24{opacity:0.2;}
	.st25{fill:#828CC0;}
	.st26{fill:#FFFFFF;}
	.st27{fill:#FFD438;}
	.st28{opacity:0.3;fill:#2A1649;}
	.st29{fill:#0D889F;}
	.st30{fill:#A89317;}
	.st31{clip-path:url(#SVGID_3_);}
	.st32{clip-path:url(#SVGID_5_);enable-background:new    ;}
	.st33{clip-path:url(#SVGID_7_);enable-background:new    ;}
	.st34{clip-path:url(#SVGID_9_);enable-background:new    ;}
	.st35{fill:#0E8FA7;}
	.st36{clip-path:url(#SVGID_11_);}
	.st37{clip-path:url(#SVGID_13_);enable-background:new    ;}
	.st38{opacity:0.3;fill:#190D2B;}
	.st39{clip-path:url(#SVGID_15_);enable-background:new    ;}
	.st40{clip-path:url(#SVGID_17_);}
	.st41{fill:#251B29;}
	.st42{clip-path:url(#SVGID_19_);enable-background:new    ;}
	.st43{clip-path:url(#SVGID_21_);}
	.st44{fill:url(#SVGID_22_);}
	.st45{opacity:0.3;fill:#AC44EE;}
	.st46{opacity:0.5;fill:#B7B5BA;}
	.st47{opacity:0.9;fill:#AC44EE;}
	.st48{opacity:0.9;fill:#8B35D2;}
	.st49{opacity:0.9;}
	.st50{fill:#4C1F8C;}
	.st51{fill:#8B35D2;}
	.st52{opacity:0.9;fill:#4C1F8C;}
	.st53{fill:#F3A984;}
	.st54{fill:#6E4CB3;}
	.st55{fill:#8763CD;}
	.st56{fill:#F5A783;}
	.st57{fill:#EE9C76;}
	.st58{fill:#FFBFA2;}
	.st59{fill:#F8B495;}
	.st60{fill:#C99C83;}
	.st61{fill:#B98C74;}
	.st62{opacity:0.3;fill:#211338;}
	.st63{fill:#FF9900;}
	.st64{clip-path:url(#SVGID_24_);enable-background:new    ;}
	.st65{clip-path:url(#SVGID_26_);enable-background:new    ;}
	.st66{clip-path:url(#SVGID_28_);enable-background:new    ;}
	.st67{clip-path:url(#SVGID_30_);enable-background:new    ;}
	.st68{opacity:0.3;fill:#1E1133;}
	.st69{clip-path:url(#SVGID_32_);enable-background:new    ;}
	.st70{clip-path:url(#SVGID_34_);enable-background:new    ;}
	.st71{clip-path:url(#SVGID_36_);enable-background:new    ;}
	.st72{clip-path:url(#SVGID_38_);enable-background:new    ;}
	.st73{clip-path:url(#SVGID_40_);enable-background:new    ;}
	.st74{clip-path:url(#SVGID_42_);enable-background:new    ;}
	.st75{clip-path:url(#SVGID_44_);enable-background:new    ;}
	.st76{clip-path:url(#SVGID_46_);enable-background:new    ;}
	.st77{clip-path:url(#SVGID_48_);enable-background:new    ;}
	.st78{clip-path:url(#SVGID_50_);enable-background:new    ;}
	.st79{clip-path:url(#SVGID_52_);enable-background:new    ;}
	.st80{clip-path:url(#SVGID_54_);enable-background:new    ;}
	.st81{clip-path:url(#SVGID_56_);enable-background:new    ;}
	.st82{clip-path:url(#SVGID_58_);enable-background:new    ;}
	.st83{clip-path:url(#SVGID_60_);enable-background:new    ;}
	.st84{clip-path:url(#SVGID_62_);enable-background:new    ;}
	.st85{clip-path:url(#SVGID_64_);enable-background:new    ;}
	.st86{clip-path:url(#SVGID_66_);enable-background:new    ;}
	.st87{clip-path:url(#SVGID_68_);enable-background:new    ;}
	.st88{clip-path:url(#SVGID_70_);enable-background:new    ;}
	.st89{clip-path:url(#SVGID_72_);enable-background:new    ;}
	.st90{clip-path:url(#SVGID_74_);enable-background:new    ;}
	.st91{clip-path:url(#SVGID_76_);enable-background:new    ;}
	.st92{clip-path:url(#SVGID_78_);enable-background:new    ;}
	.st93{opacity:0.3;fill:#0E0819;}
	.st94{clip-path:url(#SVGID_80_);enable-background:new    ;}
	.st95{clip-path:url(#SVGID_82_);enable-background:new    ;}
	.st96{clip-path:url(#SVGID_84_);enable-background:new    ;}
	.st97{clip-path:url(#SVGID_86_);enable-background:new    ;}
	.st98{clip-path:url(#SVGID_88_);enable-background:new    ;}
	.st99{clip-path:url(#SVGID_90_);enable-background:new    ;}
	.st100{clip-path:url(#SVGID_92_);enable-background:new    ;}
	.st101{clip-path:url(#SVGID_94_);enable-background:new    ;}
	.st102{clip-path:url(#SVGID_96_);enable-background:new    ;}
	.st103{clip-path:url(#SVGID_98_);enable-background:new    ;}
	.st104{clip-path:url(#SVGID_100_);enable-background:new    ;}
	.st105{clip-path:url(#SVGID_102_);enable-background:new    ;}
	.st106{clip-path:url(#SVGID_104_);enable-background:new    ;}
	.st107{clip-path:url(#SVGID_106_);enable-background:new    ;}
	.st108{clip-path:url(#SVGID_108_);enable-background:new    ;}
	.st109{clip-path:url(#SVGID_110_);enable-background:new    ;}
	.st110{clip-path:url(#SVGID_112_);enable-background:new    ;}
	.st111{clip-path:url(#SVGID_114_);enable-background:new    ;}
	.st112{clip-path:url(#SVGID_116_);enable-background:new    ;}
	.st113{clip-path:url(#SVGID_118_);enable-background:new    ;}
	.st114{clip-path:url(#SVGID_120_);enable-background:new    ;}
	.st115{clip-path:url(#SVGID_122_);enable-background:new    ;}
	.st116{clip-path:url(#SVGID_124_);enable-background:new    ;}
	.st117{clip-path:url(#SVGID_126_);enable-background:new    ;}
	.st118{clip-path:url(#SVGID_128_);enable-background:new    ;}
	.st119{clip-path:url(#SVGID_130_);enable-background:new    ;}
	.st120{clip-path:url(#SVGID_132_);enable-background:new    ;}
	.st121{clip-path:url(#SVGID_134_);enable-background:new    ;}
	.st122{clip-path:url(#SVGID_136_);enable-background:new    ;}
	.st123{clip-path:url(#SVGID_138_);enable-background:new    ;}
	.st124{clip-path:url(#SVGID_140_);enable-background:new    ;}
	.st125{clip-path:url(#SVGID_142_);enable-background:new    ;}
	.st126{clip-path:url(#SVGID_144_);enable-background:new    ;}
	.st127{clip-path:url(#SVGID_146_);enable-background:new    ;}
	.st128{clip-path:url(#SVGID_148_);enable-background:new    ;}
	.st129{clip-path:url(#SVGID_150_);enable-background:new    ;}
	.st130{clip-path:url(#SVGID_152_);enable-background:new    ;}
	.st131{clip-path:url(#SVGID_154_);enable-background:new    ;}
	.st132{clip-path:url(#SVGID_156_);enable-background:new    ;}
	.st133{clip-path:url(#SVGID_158_);enable-background:new    ;}
	.st134{clip-path:url(#SVGID_160_);enable-background:new    ;}
	.st135{clip-path:url(#SVGID_162_);enable-background:new    ;}
	.st136{clip-path:url(#SVGID_164_);enable-background:new    ;}
	.st137{clip-path:url(#SVGID_166_);enable-background:new    ;}
	.st138{clip-path:url(#SVGID_168_);enable-background:new    ;}
	.st139{clip-path:url(#SVGID_170_);enable-background:new    ;}
	.st140{clip-path:url(#SVGID_172_);enable-background:new    ;}
	.st141{clip-path:url(#SVGID_174_);enable-background:new    ;}
	.st142{clip-path:url(#SVGID_176_);enable-background:new    ;}
	.st143{clip-path:url(#SVGID_178_);enable-background:new    ;}
	.st144{clip-path:url(#SVGID_180_);enable-background:new    ;}
	.st145{clip-path:url(#SVGID_182_);enable-background:new    ;}
	.st146{clip-path:url(#SVGID_184_);enable-background:new    ;}
	.st147{clip-path:url(#SVGID_186_);enable-background:new    ;}
	.st148{clip-path:url(#SVGID_188_);enable-background:new    ;}
	.st149{clip-path:url(#SVGID_190_);enable-background:new    ;}
	.st150{clip-path:url(#SVGID_192_);enable-background:new    ;}
	.st151{clip-path:url(#SVGID_194_);enable-background:new    ;}
	.st152{clip-path:url(#SVGID_196_);enable-background:new    ;}
	.st153{clip-path:url(#SVGID_198_);enable-background:new    ;}
	.st154{clip-path:url(#SVGID_200_);enable-background:new    ;}
	.st155{clip-path:url(#SVGID_202_);enable-background:new    ;}
	.st156{clip-path:url(#SVGID_204_);enable-background:new    ;}
	.st157{clip-path:url(#SVGID_206_);enable-background:new    ;}
	.st158{clip-path:url(#SVGID_208_);enable-background:new    ;}
	.st159{clip-path:url(#SVGID_210_);enable-background:new    ;}
	.st160{clip-path:url(#SVGID_212_);enable-background:new    ;}
	.st161{clip-path:url(#SVGID_214_);enable-background:new    ;}
	.st162{clip-path:url(#SVGID_216_);enable-background:new    ;}
	.st163{clip-path:url(#SVGID_218_);enable-background:new    ;}
	.st164{clip-path:url(#SVGID_220_);enable-background:new    ;}
	.st165{clip-path:url(#SVGID_222_);enable-background:new    ;}
	.st166{opacity:0.3;fill:#10091E;}
	.st167{clip-path:url(#SVGID_224_);enable-background:new    ;}
	.st168{clip-path:url(#SVGID_226_);enable-background:new    ;}
	.st169{clip-path:url(#SVGID_228_);enable-background:new    ;}
	.st170{clip-path:url(#SVGID_230_);enable-background:new    ;}
	.st171{clip-path:url(#SVGID_232_);enable-background:new    ;}
	.st172{clip-path:url(#SVGID_234_);enable-background:new    ;}
	.st173{clip-path:url(#SVGID_236_);enable-background:new    ;}
	.st174{clip-path:url(#SVGID_238_);enable-background:new    ;}
	.st175{clip-path:url(#SVGID_240_);enable-background:new    ;}
	.st176{clip-path:url(#SVGID_242_);enable-background:new    ;}
	.st177{clip-path:url(#SVGID_244_);enable-background:new    ;}
	.st178{clip-path:url(#SVGID_246_);enable-background:new    ;}
	.st179{clip-path:url(#SVGID_248_);enable-background:new    ;}
	.st180{clip-path:url(#SVGID_250_);enable-background:new    ;}
	.st181{clip-path:url(#SVGID_252_);enable-background:new    ;}
	.st182{clip-path:url(#SVGID_254_);enable-background:new    ;}
	.st183{clip-path:url(#SVGID_256_);enable-background:new    ;}
	.st184{clip-path:url(#SVGID_258_);enable-background:new    ;}
	.st185{clip-path:url(#SVGID_260_);enable-background:new    ;}
	.st186{clip-path:url(#SVGID_262_);enable-background:new    ;}
	.st187{clip-path:url(#SVGID_264_);enable-background:new    ;}
	.st188{clip-path:url(#SVGID_266_);enable-background:new    ;}
	.st189{clip-path:url(#SVGID_268_);enable-background:new    ;}
	.st190{clip-path:url(#SVGID_270_);enable-background:new    ;}
	.st191{clip-path:url(#SVGID_272_);enable-background:new    ;}
	.st192{clip-path:url(#SVGID_274_);enable-background:new    ;}
	.st193{clip-path:url(#SVGID_276_);enable-background:new    ;}
	.st194{clip-path:url(#SVGID_278_);enable-background:new    ;}
	.st195{opacity:0.3;fill:#11091C;}
	.st196{clip-path:url(#SVGID_280_);enable-background:new    ;}
	.st197{clip-path:url(#SVGID_282_);enable-background:new    ;}
	.st198{clip-path:url(#SVGID_284_);enable-background:new    ;}
	.st199{clip-path:url(#SVGID_286_);enable-background:new    ;}
	.st200{clip-path:url(#SVGID_288_);enable-background:new    ;}
	.st201{clip-path:url(#SVGID_290_);enable-background:new    ;}
	.st202{clip-path:url(#SVGID_292_);enable-background:new    ;}
	.st203{clip-path:url(#SVGID_294_);enable-background:new    ;}
	.st204{clip-path:url(#SVGID_296_);enable-background:new    ;}
	.st205{clip-path:url(#SVGID_298_);enable-background:new    ;}
	.st206{clip-path:url(#SVGID_300_);enable-background:new    ;}
	.st207{clip-path:url(#SVGID_302_);enable-background:new    ;}
	.st208{fill:url(#SVGID_303_);}
	.st209{fill:#11091C;}
	.st210{fill:#592B9E;}
	.st211{clip-path:url(#SVGID_305_);enable-background:new    ;}
	.st212{clip-path:url(#SVGID_307_);}
	.st213{clip-path:url(#SVGID_309_);enable-background:new    ;}
	.st214{clip-path:url(#SVGID_311_);}
	.st215{fill:url(#SVGID_312_);}
	.st216{fill:#140B23;}
	.st217{opacity:0.3;fill:#110A1C;}
	.st218{fill:url(#SVGID_313_);}
	.st219{fill:#FFA200;}
	.st220{clip-path:url(#SVGID_315_);enable-background:new    ;}
	.st221{clip-path:url(#SVGID_317_);enable-background:new    ;}
	.st222{clip-path:url(#SVGID_319_);enable-background:new    ;}
	.st223{clip-path:url(#SVGID_321_);enable-background:new    ;}
	.st224{clip-path:url(#SVGID_323_);enable-background:new    ;}
	.st225{clip-path:url(#SVGID_325_);enable-background:new    ;}
	.st226{clip-path:url(#SVGID_327_);enable-background:new    ;}
	.st227{clip-path:url(#SVGID_329_);enable-background:new    ;}
	.st228{clip-path:url(#SVGID_331_);enable-background:new    ;}
	.st229{clip-path:url(#SVGID_333_);enable-background:new    ;}
	.st230{clip-path:url(#SVGID_335_);enable-background:new    ;}
	.st231{clip-path:url(#SVGID_337_);enable-background:new    ;}
	.st232{clip-path:url(#SVGID_339_);enable-background:new    ;}
	.st233{clip-path:url(#SVGID_341_);enable-background:new    ;}
	.st234{clip-path:url(#SVGID_343_);enable-background:new    ;}
	.st235{clip-path:url(#SVGID_345_);enable-background:new    ;}
	.st236{clip-path:url(#SVGID_347_);enable-background:new    ;}
	.st237{clip-path:url(#SVGID_349_);enable-background:new    ;}
	.st238{clip-path:url(#SVGID_351_);enable-background:new    ;}
	.st239{clip-path:url(#SVGID_353_);enable-background:new    ;}
	.st240{clip-path:url(#SVGID_355_);enable-background:new    ;}
	.st241{clip-path:url(#SVGID_357_);enable-background:new    ;}
	.st242{clip-path:url(#SVGID_359_);enable-background:new    ;}
	.st243{clip-path:url(#SVGID_361_);enable-background:new    ;}
	.st244{clip-path:url(#SVGID_363_);enable-background:new    ;}
	.st245{clip-path:url(#SVGID_365_);enable-background:new    ;}
	.st246{clip-path:url(#SVGID_367_);enable-background:new    ;}
	.st247{clip-path:url(#SVGID_369_);enable-background:new    ;}
	.st248{clip-path:url(#SVGID_371_);enable-background:new    ;}
	.st249{clip-path:url(#SVGID_373_);enable-background:new    ;}
	.st250{clip-path:url(#SVGID_375_);enable-background:new    ;}
	.st251{clip-path:url(#SVGID_377_);enable-background:new    ;}
	.st252{clip-path:url(#SVGID_379_);enable-background:new    ;}
	.st253{clip-path:url(#SVGID_381_);enable-background:new    ;}
	.st254{clip-path:url(#SVGID_383_);enable-background:new    ;}
	.st255{clip-path:url(#SVGID_385_);enable-background:new    ;}
	.st256{clip-path:url(#SVGID_387_);enable-background:new    ;}
	.st257{clip-path:url(#SVGID_389_);enable-background:new    ;}
	.st258{clip-path:url(#SVGID_391_);enable-background:new    ;}
	.st259{clip-path:url(#SVGID_393_);enable-background:new    ;}
	.st260{opacity:0.3;fill:#120A1E;}
	.st261{clip-path:url(#SVGID_395_);enable-background:new    ;}
	.st262{clip-path:url(#SVGID_397_);enable-background:new    ;}
	.st263{clip-path:url(#SVGID_399_);enable-background:new    ;}
	.st264{clip-path:url(#SVGID_401_);enable-background:new    ;}
	.st265{clip-path:url(#SVGID_403_);enable-background:new    ;}
	.st266{clip-path:url(#SVGID_405_);enable-background:new    ;}
	.st267{clip-path:url(#SVGID_407_);enable-background:new    ;}
	.st268{clip-path:url(#SVGID_409_);enable-background:new    ;}
	.st269{clip-path:url(#SVGID_411_);enable-background:new    ;}
	.st270{clip-path:url(#SVGID_413_);enable-background:new    ;}
	.st271{clip-path:url(#SVGID_415_);enable-background:new    ;}
	.st272{clip-path:url(#SVGID_417_);enable-background:new    ;}
	.st273{clip-path:url(#SVGID_419_);enable-background:new    ;}
	.st274{clip-path:url(#SVGID_421_);enable-background:new    ;}
	.st275{clip-path:url(#SVGID_423_);enable-background:new    ;}
	.st276{clip-path:url(#SVGID_425_);enable-background:new    ;}
	.st277{clip-path:url(#SVGID_427_);enable-background:new    ;}
	.st278{clip-path:url(#SVGID_429_);enable-background:new    ;}
	.st279{clip-path:url(#SVGID_431_);enable-background:new    ;}
	.st280{clip-path:url(#SVGID_433_);enable-background:new    ;}
	.st281{clip-path:url(#SVGID_435_);enable-background:new    ;}
	.st282{clip-path:url(#SVGID_437_);enable-background:new    ;}
	.st283{clip-path:url(#SVGID_439_);enable-background:new    ;}
	.st284{clip-path:url(#SVGID_441_);enable-background:new    ;}
	.st285{fill:#120A1E;}
	.st286{opacity:0.3;fill:#140B21;}
	.st287{clip-path:url(#SVGID_443_);enable-background:new    ;}
	.st288{clip-path:url(#SVGID_445_);enable-background:new    ;}
	.st289{fill:#C9C9EC;}
	.st290{fill:#B7B7D7;}
	.st291{fill:#E1E1F5;}
	.st292{fill:#DF9B09;}
	.st293{opacity:0.3;fill:#0F0819;}
	.st294{clip-path:url(#SVGID_447_);}
	.st295{clip-path:url(#SVGID_449_);enable-background:new    ;}
	.st296{clip-path:url(#SVGID_451_);enable-background:new    ;}
	.st297{clip-path:url(#SVGID_453_);enable-background:new    ;}
	.st298{clip-path:url(#SVGID_455_);enable-background:new    ;}
	.st299{clip-path:url(#SVGID_457_);enable-background:new    ;}
	.st300{clip-path:url(#SVGID_459_);enable-background:new    ;}
	.st301{clip-path:url(#SVGID_461_);enable-background:new    ;}
	.st302{clip-path:url(#SVGID_463_);enable-background:new    ;}
	.st303{clip-path:url(#SVGID_465_);enable-background:new    ;}
	.st304{clip-path:url(#SVGID_467_);enable-background:new    ;}
	.st305{clip-path:url(#SVGID_469_);enable-background:new    ;}
	.st306{clip-path:url(#SVGID_471_);enable-background:new    ;}
	.st307{clip-path:url(#SVGID_473_);enable-background:new    ;}
	.st308{clip-path:url(#SVGID_475_);enable-background:new    ;}
	.st309{clip-path:url(#SVGID_477_);enable-background:new    ;}
	.st310{clip-path:url(#SVGID_479_);enable-background:new    ;}
	.st311{clip-path:url(#SVGID_481_);enable-background:new    ;}
	.st312{clip-path:url(#SVGID_483_);enable-background:new    ;}
	.st313{fill:#FFE561;}
	.st314{fill:url(#SVGID_484_);}
</style>
<rect x="0" y="0" class="st0" width="500" height="500"/>
<g>
	<path class="st1" d="M338,415.2l109.2-63c2.3-1.3,2.3-4.7,0-6L330.9,279l-28.6,140.8h18.3C326.7,419.8,332.7,418.2,338,415.2z"/>
	<g id="smart_watch_10_">
		<g>
			<g>
				<g class="st2">
					<g>
						<polygon class="st3" points="413.1,345.5 413.1,359.6 316.7,415.6 316.8,401.5 						"/>
					</g>
					<path class="st3" d="M420.7,335l0,14.1c0,3.8-2.5,7.6-7.5,10.6l0-14.1C418.1,342.6,420.6,338.8,420.7,335z"/>
					<g>
						<polygon class="st4" points="280.1,401.5 280,415.6 70.7,294.8 70.8,280.7 						"/>
					</g>
					<path class="st4" d="M63.1,284.1l0-14.1c0,3.9,2.5,7.8,7.7,10.7l0,14.1C65.6,291.8,63.1,287.9,63.1,284.1z"/>
					<path class="st5" d="M316.8,401.5l0,14.1c-10.1,5.9-26.5,5.9-36.7,0l0-14.1C290.2,407.4,306.7,407.4,316.8,401.5z"/>
					<g>
						<path class="st3" d="M413,324.3c10.2,5.9,10.2,15.4,0.1,21.3l-96.3,56c-10.1,5.9-26.5,5.9-36.7,0L70.8,280.7
							c-10.2-5.9-10.2-15.4-0.1-21.3l96.3-56c10.1-5.9,26.5-5.9,36.7,0L413,324.3z"/>
					</g>
				</g>
			</g>
			<g>
				<path class="st6" d="M413,324.3l-18.4-10.6l-133.4,77l18.8,10.9c10.2,5.9,26.6,5.9,36.7,0l96.3-56
					C423.2,339.7,423.2,330.1,413,324.3z"/>
				<path class="st6" d="M203.7,203.4c-10.2-5.9-26.6-5.9-36.7,0l-96.3,56c-10.1,5.9-10,15.4,0.1,21.3l6.4,3.7l133.4-77L203.7,203.4
					z"/>
				<linearGradient id="SVGID_1_" gradientUnits="userSpaceOnUse" x1="107.5111" y1="231.0912" x2="380.1029" y2="375.3011">
					<stop  offset="7.619050e-02" style="stop-color:#AC44EE"/>
					<stop  offset="7.801442e-02" style="stop-color:#AC44EE"/>
					<stop  offset="0.2581" style="stop-color:#8937CB"/>
					<stop  offset="0.44" style="stop-color:#6E2CAF"/>
					<stop  offset="0.6237" style="stop-color:#5B259C"/>
					<stop  offset="0.8094" style="stop-color:#502090"/>
					<stop  offset="1" style="stop-color:#4C1F8C"/>
				</linearGradient>
				<polygon class="st7" points="394.6,313.6 261.2,390.6 119.2,308.6 100.8,298 91.6,292.7 77.2,284.4 110.9,264.9 137,249.9 
					210.6,207.4 225,215.7 				"/>
				<g>
					<polygon class="st8" points="225,215.7 91.6,292.7 77.2,284.4 110.9,264.9 137,249.9 210.6,207.4 					"/>
					<path class="st6" d="M121.9,268.1l-1.7,0.3c-0.1-0.1-0.2-0.2-0.4-0.2c-0.2-0.1-0.3-0.2-0.5-0.3l0.5-1c0.1-0.1-0.1-0.3-0.3-0.3
						l-2.3-0.4c-0.2,0-0.5,0-0.5,0.2l-0.5,1c-0.4,0-0.7,0.1-1.1,0.2l-1.3-0.8c-0.2-0.1-0.5-0.1-0.6,0l-1.7,1c-0.2,0.1-0.2,0.3,0,0.4
						l1.3,0.8c-0.2,0.2-0.3,0.4-0.3,0.6l-1.8,0.3c-0.2,0-0.4,0.2-0.3,0.3l0.6,1.3c0.1,0.1,0.3,0.2,0.5,0.2l1.7-0.3
						c0.1,0.1,0.3,0.2,0.4,0.3c0.1,0.1,0.3,0.1,0.4,0.2l-0.5,1c-0.1,0.1,0.1,0.3,0.3,0.3l2.3,0.4c0.2,0,0.5,0,0.5-0.2l0.4-1
						c0.4,0,0.9-0.1,1.3-0.2l1.2,0.7c0.2,0.1,0.5,0.1,0.6,0l1.7-1c0.2-0.1,0.2-0.3,0-0.4l-1.2-0.7c0.2-0.2,0.3-0.5,0.3-0.7l1.7-0.3
						c0.2,0,0.4-0.2,0.3-0.3l-0.6-1.3C122.4,268.2,122.1,268.1,121.9,268.1z M118.2,270.8c-0.8,0.5-2.1,0.5-2.9,0
						c-0.8-0.5-0.8-1.2,0-1.7c0.8-0.5,2.1-0.5,2.9,0C119,269.6,119,270.3,118.2,270.8z"/>
					<g>
						<path class="st6" d="M152.8,243c-3.3,1.9-4.4,4.6-3.3,7.1l1.3-0.2c-1-2.2,0-4.6,2.9-6.3c3-1.7,7.2-2.3,11-1.7l0.3-0.7
							C160.9,240.5,156.2,241.1,152.8,243z"/>
						<path class="st6" d="M155.7,244.6c-2.3,1.3-3,3.2-2.2,4.8l1.3-0.2c-0.7-1.4,0-3,1.9-4.1c1.9-1.1,4.6-1.5,7.1-1.1l0.3-0.7
							C161.2,242.9,157.9,243.3,155.7,244.6z"/>
						<path class="st6" d="M158.5,246.3c-1.2,0.7-1.6,1.7-1.2,2.6l1.3-0.2c-0.3-0.6,0-1.4,0.9-1.9c0.9-0.5,2.1-0.7,3.2-0.5l0.3-0.7
							C161.5,245.3,159.7,245.6,158.5,246.3z"/>
						<path class="st6" d="M163.3,249c-0.7,0.4-1.8,0.4-2.5,0c-0.2-0.1-0.4-0.3-0.4-0.4c-0.2-0.3,0-0.7,0.4-1
							c0.5-0.3,1.1-0.3,1.7-0.3c0.3,0,0.6,0.1,0.8,0.3C163.9,248,163.9,248.6,163.3,249z"/>
					</g>
					<g>
						<path class="st6" d="M86.8,283.9c-0.1,0.3-0.4,0.6-0.8,0.9l-0.8-0.4c0.9-0.5,0.7-1,0.3-1.5l0.6-0.4l8.3,4.8l-0.9,0.5
							L86.8,283.9z"/>
						<path class="st6" d="M89.5,282.9c-1.3-0.7-1.5-1.6-0.2-2.3c1.3-0.7,2.7-0.6,4,0.1l4.3,2.5c1.3,0.7,1.5,1.6,0.2,2.3
							c-1.3,0.7-2.7,0.6-4-0.1L89.5,282.9z M94.7,284.9c0.7,0.4,1.5,0.5,2.2,0.1c0.7-0.4,0.5-0.8-0.2-1.3l-4.4-2.5
							c-0.8-0.4-1.5-0.5-2.2-0.1c-0.7,0.4-0.5,0.8,0.2,1.3L94.7,284.9z"/>
						<path class="st6" d="M95.7,280.1l1.1,0.7l-0.9,0.5l-1.1-0.7L95.7,280.1z M100.2,282.7l1.1,0.7l-0.9,0.5l-1.1-0.7L100.2,282.7z
							"/>
						<path class="st6" d="M97.3,279.1c-1.3-0.7-1.5-1.6-0.2-2.3c1.3-0.7,2.7-0.6,4,0.1l4.3,2.5c1.3,0.7,1.5,1.6,0.2,2.3
							c-1.3,0.7-2.7,0.6-4-0.1L97.3,279.1z M102.5,281.1c0.7,0.4,1.5,0.5,2.2,0.1c0.7-0.4,0.5-0.8-0.2-1.3l-4.4-2.5
							c-0.8-0.4-1.5-0.5-2.2-0.1c-0.7,0.4-0.5,0.8,0.2,1.3L102.5,281.1z"/>
						<path class="st6" d="M102.4,276.2c-1.3-0.7-1.5-1.6-0.2-2.3c1.3-0.7,2.7-0.6,4,0.1l4.3,2.5c1.3,0.7,1.5,1.6,0.2,2.3
							c-1.3,0.7-2.7,0.6-4-0.1L102.4,276.2z M107.7,278.1c0.7,0.4,1.5,0.5,2.2,0.1c0.7-0.4,0.5-0.8-0.2-1.3l-4.4-2.5
							c-0.8-0.4-1.5-0.5-2.2-0.1c-0.7,0.4-0.5,0.8,0.2,1.3L107.7,278.1z"/>
					</g>
					<g>
						<path class="st6" d="M189.7,230.4l1.7,1l-0.9,0.5l-1.7-1l-2.7,1.5l-0.8-0.5l-3.2-4.8l1-0.6l5.8,3.3l0.7-0.4l0.8,0.5
							L189.7,230.4z M186.2,231.4l1.8-1.1l-4-2.3L186.2,231.4z"/>
						<path class="st6" d="M188.1,224.6l-2.8,1.6l-0.8-0.5l3.7-2.2l0.8,0.5l5.3,5.5l-0.9,0.5L188.1,224.6z"/>
						<path class="st6" d="M192.7,222.5l2.6,1.5c0.8,0.5,1,1,0.2,1.5c-0.8,0.5-1.7,0.4-2.5-0.1l-2.6-1.5c-0.8-0.5-1-1-0.2-1.5
							C191,222,191.9,222.1,192.7,222.5z M190.9,223.5l2.7,1.6c0.4,0.3,0.9,0.3,1.3,0.1c0.4-0.2,0.3-0.5-0.2-0.8l-2.7-1.6
							c-0.4-0.3-0.9-0.3-1.3-0.1C190.3,223,190.4,223.3,190.9,223.5z M194.1,220.2l5,6.7l-0.6,0.3l-5-6.7L194.1,220.2z M199.8,221.9
							l2.6,1.5c0.8,0.5,1,1,0.2,1.5c-0.8,0.5-1.7,0.4-2.5-0.1l-2.6-1.5c-0.8-0.5-0.9-1-0.1-1.4C198.2,221.4,199.1,221.5,199.8,221.9
							z M198,223l2.7,1.5c0.4,0.3,0.9,0.3,1.3,0.1c0.4-0.2,0.3-0.5-0.2-0.8l-2.7-1.5c-0.4-0.3-0.9-0.3-1.3-0.1
							C197.5,222.4,197.6,222.7,198,223z"/>
					</g>
					<g>
						<g>
							<path class="st6" d="M210.4,223.2l-11.2-6.5l6.4-3.7l11.2,6.5L210.4,223.2z M200.9,216.7l9.5,5.5l4.6-2.7l-9.5-5.5
								L200.9,216.7z"/>
						</g>
						<polygon class="st6" points="215.9,219.5 210.4,222.7 205.8,220 211.3,216.9 						"/>
						<polygon class="st6" points="204.3,214.3 201.5,216 199.7,215 202.6,213.3 						"/>
					</g>
					<g>
						<polygon class="st6" points="177.3,241.5 174.3,243.1 168.7,239.9 171.7,238.2 						"/>
						<polygon class="st6" points="181.5,239 178.6,240.7 170.9,236.3 173.8,234.6 						"/>
						<polygon class="st6" points="185.7,236.6 182.8,238.3 171.4,231.7 174.3,230 						"/>
					</g>
				</g>
			</g>
			<g>
				<path class="st9" d="M150.7,229.9l-23.8,13.7c-1.7,1-4.3,1-6,0l0,0c-1.7-1-1.7-2.5,0-3.5l23.8-13.7c1.7-1,4.3-1,6,0l0,0
					C152.4,227.4,152.4,229,150.7,229.9z"/>
				<path class="st9" d="M162.5,219.7c-2.3-1.4-6.1-1.4-8.5,0c-2.3,1.4-2.3,3.5,0,4.9c2.3,1.4,6.1,1.4,8.5,0
					C164.8,223.2,164.8,221,162.5,219.7z"/>
				<path class="st9" d="M116.2,246.4c-1.2-0.7-3.2-0.7-4.4,0c-1.2,0.7-1.2,1.8,0,2.5c1.2,0.7,3.2,0.7,4.4,0
					C117.4,248.2,117.4,247.1,116.2,246.4z"/>
				<path class="st9" d="M108.7,250.7c-1.2-0.7-3.2-0.7-4.4,0c-1.2,0.7-1.2,1.8,0,2.5c1.2,0.7,3.2,0.7,4.4,0
					C109.9,252.6,109.9,251.4,108.7,250.7z"/>
			</g>
			<g>
				<path class="st3" d="M337.7,377.1c-1,0-1.9-0.2-2.7-0.7l-12.5-7.2c-0.9-0.5-1.4-1.2-1.4-2c0-0.8,0.5-1.5,1.4-2l28.4-16.4
					c1.5-0.9,3.9-0.9,5.4,0l12.5,7.2c0.9,0.5,1.4,1.2,1.4,2s-0.5,1.5-1.4,2v0l-28.4,16.4C339.6,376.9,338.6,377.1,337.7,377.1z
					 M353.6,349.8c-0.7,0-1.3,0.1-1.8,0.4l-28.4,16.4c-0.4,0.2-0.5,0.4-0.5,0.5c0,0.1,0.1,0.3,0.5,0.5l12.5,7.2c1,0.6,2.7,0.6,3.6,0
					l28.4-16.4c0.4-0.2,0.5-0.4,0.5-0.5c0-0.1-0.1-0.3-0.5-0.5l-12.5-7.2C354.9,350,354.2,349.8,353.6,349.8z"/>
			</g>
			<g>
				<polygon class="st3" points="372.2,372.2 365.6,376 373.6,379.8 373.6,371.3 				"/>
				<polygon class="st6" points="361.2,378.5 361.2,387 373.6,379.8 365.6,376 				"/>
			</g>
			<polygon class="st10" points="372.2,372.2 372.2,379.1 361.2,385.5 361.2,378.5 			"/>
			<polygon class="st11" points="164.2,234.2 138.2,319.6 169.4,337.6 208.5,208.6 			"/>
			<polygon class="st11" points="119.2,308.6 137,249.9 110.9,264.9 100.8,298 			"/>
		</g>
	</g>
	<g>
		<g class="st12">
			<polygon class="st13" points="344.7,338.2 309.5,317.9 278.4,331.8 287.3,331.8 291.6,363.3 301.7,363.3 			"/>
		</g>
		<g class="st12">
			<polygon class="st13" points="303.4,314.4 268.3,294.1 237.1,308 246.1,308 250.3,339.5 260.4,339.5 			"/>
		</g>
		<g class="st12">
			<polygon class="st13" points="262,290.6 226.9,270.3 195.7,284.2 204.7,284.2 208.9,315.7 219.1,315.7 			"/>
		</g>
		<g class="st12">
			<polygon class="st13" points="221,266.8 185.8,246.5 154.7,260.4 163.7,260.4 167.9,291.9 178,291.9 			"/>
		</g>
		<g class="st2">
			<g>
				<polygon class="st13" points="200.7,106.1 200.2,273.1 167.9,291.9 168.3,124.9 				"/>
			</g>
			<g>
				<polygon class="st14" points="168.3,124.9 167.9,291.9 135.3,273.1 135.8,106.1 				"/>
			</g>
			<g>
				<polygon class="st15" points="200.7,106.1 168.3,124.9 135.8,106.1 168.1,87.4 				"/>
			</g>
		</g>
		<g class="st2">
			<g>
				<polygon class="st16" points="241.9,209.7 241.4,296.9 209.1,315.7 209.5,228.5 				"/>
			</g>
			<g>
				<polygon class="st17" points="209.5,228.5 209.1,315.7 176.5,296.9 177,209.7 				"/>
			</g>
			<g>
				<polygon class="st18" points="241.9,209.7 209.5,228.5 177,209.7 209.3,190.9 				"/>
			</g>
		</g>
		<g class="st2">
			<g>
				<polygon class="st19" points="283.1,190.9 282.6,320.7 250.3,339.5 250.7,209.7 				"/>
			</g>
			<g>
				<polygon class="st20" points="250.7,209.7 250.3,339.5 217.7,320.7 218.2,190.9 				"/>
			</g>
			<g>
				<polygon class="st21" points="283.1,190.9 250.7,209.7 218.2,190.9 250.5,172.2 				"/>
			</g>
		</g>
		<g class="st2">
			<g>
				<polygon class="st4" points="324.3,291.8 323.8,344.5 291.5,363.3 291.9,310.6 				"/>
			</g>
			<g>
				<polygon class="st5" points="291.9,310.6 291.5,363.3 258.9,344.5 259.4,291.8 				"/>
			</g>
			<g>
				<polygon class="st6" points="324.3,291.8 291.9,310.6 259.4,291.8 291.7,273 				"/>
			</g>
		</g>
	</g>
</g>
</svg>
