<?xml version="1.0" encoding="utf-8"?>
<!-- Generator: Adobe Illustrator 26.0.0, SVG Export Plug-In . SVG Version: 6.00 Build 0)  -->
<svg version="1.1" id="Layer_1" xmlns="http://www.w3.org/2000/svg" xmlns:xlink="http://www.w3.org/1999/xlink" x="0px" y="0px"
	 viewBox="0 0 1000 1000" style="enable-background:new 0 0 1000 1000;" xml:space="preserve">
<style type="text/css">
	.st0{stroke:#000000;stroke-miterlimit:10;}
	.st1{fill:#F7931E;}
</style>
<rect x="-0.61" y="-0.58" class="st0" width="1000.11" height="1000.08"/>
<g>
	<g>
		<path class="st1" d="M309.99,707.43c-73.12-16.24-138.83-59.38-185.1-121.55c-46.96-63.08-70.92-142.07-67.46-222.4
			c3.77-87.63,39.15-169.29,99.6-229.93c60.28-60.46,139.16-93.76,222.1-93.76c4.42,0,8.91,0.1,13.34,0.29
			c70.08,3.02,135.63,29.24,189.57,75.83c25.95,22.42,48.3,48.86,66.42,78.59c18.23,29.91,31.75,62.46,40.19,96.75
			c-17.13-3.71-34.65-5.97-52.07-6.72c-4.45-0.19-8.95-0.29-13.39-0.29c-173.12,0-314.87,142.6-322.71,324.65
			C299.06,642.21,302.25,675.37,309.99,707.43z"/>
		<path d="M379.14,40.29c4.42,0,8.9,0.1,13.32,0.29c35.29,1.52,69.7,9.01,102.29,22.27c31.51,12.82,60.77,30.8,86.98,53.43
			c25.91,22.38,48.23,48.79,66.32,78.47c18.07,29.64,31.5,61.88,39.94,95.83c-16.91-3.62-34.18-5.82-51.37-6.56
			c-4.45-0.19-8.95-0.29-13.41-0.29c-173.39,0.01-315.36,142.82-323.21,325.13c-1.42,33.1,1.71,66.03,9.32,97.9
			c-72.69-16.35-137.99-59.34-184.03-121.19c-23-30.89-40.5-65.4-52.03-102.55c-11.93-38.46-17.09-78.68-15.33-119.53
			c3.77-87.51,39.09-169.05,99.46-229.6c29.36-29.45,63.2-52.53,100.58-68.61C296.53,48.7,337.3,40.29,379.14,40.29 M379.14,39.29
			C207.7,39.28,64.75,181.65,56.93,363.46c-7.21,167.52,102.78,311.52,253.74,344.63c-7.69-31.58-11.15-64.88-9.67-99.18
			c7.82-181.79,150.79-324.16,322.21-324.17c4.44,0,8.89,0.1,13.37,0.29c18.05,0.78,35.67,3.13,52.77,6.88
			C655.19,151.77,537.2,45.8,392.5,39.58C388.03,39.38,383.57,39.29,379.14,39.29L379.14,39.29z"/>
	</g>
	<g>
		<path class="st1" d="M620.87,960.21c-4.43,0-8.92-0.1-13.34-0.29c-70.08-3.02-135.63-29.24-189.57-75.83
			c-25.95-22.42-48.3-48.86-66.42-78.59c-18.23-29.91-31.75-62.46-40.19-96.75c17.13,3.71,34.65,5.97,52.07,6.72
			c4.45,0.19,8.95,0.29,13.37,0.29c0.01,0,0.01,0,0.02,0c173.12-0.01,314.88-142.61,322.71-324.65c1.43-33.33-1.76-66.48-9.5-98.54
			c73.12,16.24,138.83,59.38,185.1,121.55c46.96,63.08,70.92,142.07,67.46,222.4c-3.77,87.63-39.15,169.29-99.61,229.93
			c-60.28,60.46-139.16,93.76-222.09,93.76C620.87,960.21,620.87,960.21,620.87,960.21z"/>
		<path d="M690.69,293.23c72.69,16.35,137.99,59.34,184.03,121.19c23,30.89,40.5,65.4,52.03,102.55
			c11.93,38.46,17.09,78.68,15.33,119.53c-3.77,87.51-39.09,169.05-99.46,229.6c-29.36,29.45-63.2,52.53-100.58,68.61
			c-38.57,16.59-79.34,25-121.17,25c-4.42,0-8.9-0.1-13.32-0.29c-35.29-1.52-69.7-9.01-102.29-22.27
			c-31.51-12.82-60.77-30.8-86.98-53.43c-25.91-22.38-48.23-48.79-66.32-78.47c-18.07-29.64-31.5-61.88-39.94-95.83
			c16.91,3.62,34.18,5.82,51.37,6.56c4.45,0.19,8.96,0.29,13.41,0.29c173.39,0,315.36-142.81,323.21-325.13
			C701.43,358.03,698.3,325.1,690.69,293.23 M689.34,291.91c7.69,31.58,11.15,64.88,9.67,99.18
			c-7.82,181.79-150.79,324.17-322.21,324.17c-4.44,0-8.89-0.1-13.37-0.29c-18.05-0.78-35.67-3.13-52.77-6.88
			C344.81,848.23,462.8,954.2,607.5,960.42c4.47,0.19,8.93,0.29,13.37,0.29c171.44,0,314.38-142.37,322.21-324.17
			C950.28,469.02,840.29,325.02,689.34,291.91L689.34,291.91z"/>
	</g>
</g>
</svg>
